<?xml version="1.0"?>
<svg width="24" height="24" xmlns="http://www.w3.org/2000/svg" xmlns:svg="http://www.w3.org/2000/svg">
 <g class="layer">
  <title>Layer 1</title>
  <path d="m1.14,9.29l0.17,0.26c-0.34,-0.01 -0.7,-0.04 -0.76,-0.19c0,-0.01 0,-0.01 0,-0.02c0.19,-0.05 0.35,-0.06 0.59,-0.05zm1.81,0.77l0.08,0.25l-0.19,0.01l0.04,-0.25a0.68,0.68 0 0 0 0.07,-0.01zm0.65,1.83c-0.17,0.16 -0.3,0.26 -0.4,0.5c-0.14,-0.12 -0.22,-0.35 -0.26,-0.6c-0.05,-0.28 -0.07,-0.59 -0.1,-0.82l0.01,-0.12l0.19,-0.01l0.51,0.95l0.05,0.1zm-0.25,-2.34a60.53,60.53 0 0 1 0.07,-0.51l0.07,-0.01c-0.05,0.17 -0.1,0.35 -0.14,0.52zm-0.14,-2.32l0.9,0.24a1.98,1.98 0 0 0 0,0.04c-0.42,0.31 -0.81,0.45 -1.02,1.01l0.08,-1.25l0.04,-0.04zm0.84,-1.29c-0.06,0.58 0.02,0.83 0.12,1.19c0.16,0.12 0.23,0.18 0.18,0.35c-0.27,-0.13 -0.56,-0.27 -0.97,-0.25a2.8,2.8 0 0 1 -0.03,-0.03c0.11,-0.46 0.34,-0.74 0.51,-1.1l0.19,-0.17l0,0.01zm1.29,-0.78l0.04,0c-0.12,0.43 -0.17,1.42 -0.39,1.81c-0.51,-0.25 -0.5,-1.3 0.07,-1.71l0.28,-0.1zm-0.47,3.17l0.43,0.47c-0.17,0.52 -0.49,0.92 -0.63,1.52l-0.25,-0.02c-0.22,-0.61 0.32,-1.6 0.42,-2.04l0.4,0.04c0.05,0.13 0.09,0.25 0.14,0.38l-0.51,-0.35zm1.18,-3.17c-0.05,0.51 0.06,0.77 0.09,1.16c-0.25,0.13 -0.5,0.26 -0.76,0.39a5.26,5.26 0 0 1 0.37,-1.53l0.3,-0.02zm0.29,-0.77l0.06,0l-0.09,0.24l-0.16,0.01l0.13,-0.15l0.06,-0.1zm0.06,2.36l-0.76,0.47c0.01,-0.28 0.37,-0.66 0.68,-0.77l0.07,0.04l0.01,0.26zm0.51,-1.77c-0.05,0.26 -0.09,0.52 -0.14,0.78l-0.14,0.09l-0.08,0.09c-0.13,-0.2 -0.17,-0.67 -0.14,-1.04l0.5,0.08zm0.51,-0.59c0,0.01 0,0.02 0,0.02l-0.2,0.19c-0.13,0.05 -0.15,0.05 -0.31,0.04c0.02,-0.08 0.05,-0.17 0.07,-0.25l0.44,0zm0.51,-1.03l-0.23,0.51l-0.79,-0.06l0,-0.04c0.33,-0.15 0.61,-0.33 1.02,-0.42l0,0.01zm-0.41,1.34l0.08,-0.05l0.07,0.25l-0.25,-0.05l0.1,-0.16l0,0.01zm0.66,0.76c-0.3,0.12 -0.72,0.08 -0.96,0.22a77.91,77.91 0 0 0 -0.06,-0.31l0.16,-0.21c0.26,0.1 0.52,0.2 0.77,0.3l0.09,0zm-0.65,0.46l-0.34,0.02c-0.01,-0.04 -0.02,-0.08 -0.03,-0.11c0.25,-0.1 0.66,-0.11 1.02,-0.15l-0.39,0.21l-0.26,0.03zm0.91,0c-0.3,0.08 -0.57,0.33 -0.77,0.53c-0.03,-0.23 0.42,-0.64 0.63,-0.77c0.1,0.08 0.11,0.07 0.14,0.24zm0.51,-3.08l-0.01,0.04l-0.3,0.18l-0.46,0.04l0.01,-0.04l0.76,-0.22zm-0.42,0.77l-0.09,-0.14c0.23,-0.19 0.73,-0.09 1.01,-0.06l-0.92,0.2zm2.28,-0.76c0.43,0.04 0.82,0.14 1.11,0.32l0.08,0l-0.05,0.06l-0.4,0.12c-0.25,-0.03 -0.49,-0.07 -0.74,-0.1l-1.61,-0.23l0,-0.03a5.38,5.38 0 0 1 1.61,-0.14zm1.69,-0.13l-0.09,0.12a1.23,1.23 0 0 1 -0.67,-0.26l0.77,0.1l-0.01,0.04zm1.36,0.95l0.21,-0.08l0.22,0.19c-0.03,0.21 -0.24,0.39 -0.4,0.6l-0.12,0.01c-0.33,-0.55 -0.75,-1.15 -1.48,-1.37l-0.04,-0.06l0.3,-0.12c0.5,0.17 0.92,0.44 1.38,0.59c0.06,0.14 0.04,0.1 -0.07,0.24zm0.61,1.22l-0.05,-0.05l-0.13,0.01l0.21,-0.2l-0.02,0.24l-0.01,0zm0.23,2.85c0.34,0.3 0.43,0.73 0.29,1.29c-0.15,-0.33 -0.3,-0.66 -0.45,-0.99c0.05,-0.08 0.1,-0.15 0.15,-0.23c0,-0.02 0.01,-0.05 0.01,-0.07zm0.1,-2.32l0,0.05l-0.18,0.21l-0.08,-0.14c0.11,-0.19 0.03,-0.09 0.18,-0.11l0.08,-0.01zm0.21,0l0.81,0.3a1.03,1.03 0 0 1 -0.01,0.08c-0.07,0.05 -0.14,0.09 -0.2,0.14l-0.81,-0.3l0.01,-0.08l0.2,-0.14zm1.57,1.03l-0.45,-0.29l-0.06,-0.12c0.2,-0.12 0.17,-0.12 0.37,-0.08c0.05,0.17 0.1,0.33 0.14,0.49zm0.26,-0.1l-0.09,0.1c-0.11,-0.05 -0.13,-0.12 -0.17,-0.26l0.23,0.1l0.03,0.06zm-0.19,-0.73l-0.07,0c0.07,-0.07 0.14,-0.13 0.21,-0.2c-0.05,0.07 -0.1,0.13 -0.14,0.2zm1.2,1.29l-0.12,0.06a230.14,230.14 0 0 1 -0.68,-0.39a98.74,98.74 0 0 1 -0.21,-0.29c0.35,-0.25 0.36,0.05 0.69,0.21l0.32,0.41zm0.26,0.23l-0.26,-0.09l0.16,-0.08l0.1,0.17zm-0.31,0.42c0.09,0.18 0.09,0.13 0.31,0.1l-0.39,0.34l-0.38,-0.71l0.01,-0.05c0.27,-0.05 0.36,0.04 0.63,0.08l0.11,0.17l-0.29,0.07zm0.06,0.46l0.5,-0.28c-0.1,0.23 -0.23,0.35 -0.39,0.52l-0.11,-0.24zm1.01,0.98c-0.14,0.12 -0.23,0.16 -0.49,0.18l0.21,0.03l0,0.03l-0.72,0.31l-0.01,-0.92l0.49,-0.59l0.09,-0.04l0.43,1zm-0.25,-1.41c1.4,-0.39 1.13,0.36 0.51,0.93c-0.17,-0.31 -0.34,-0.62 -0.51,-0.93zm1.27,0.15c-0.52,2.44 -0.62,2.57 -2.45,3.61a3.3,3.3 0 0 0 -0.09,-0.14l0.06,-0.27c1.2,-0.34 1.87,-0.97 1.8,-2.39l0.6,-0.76l0.08,-0.05zm0.06,0c-0.02,-0.08 -0.04,-0.17 -0.06,-0.25l0.19,-0.01l-0.13,0.26zm-3.11,2.37l0.01,-0.27l0.02,-0.23l0.18,-0.06c0,0 0.01,0 0.02,0c0.05,0.3 0,0.53 -0.1,0.77c-0.09,-0.05 -0.1,-0.08 -0.13,-0.21zm-1.02,2.26l0,-0.05l0.34,-0.8l0.07,-0.17l0.58,0.04c0.01,0.05 0.02,0.09 0.02,0.13c0.03,0.31 -0.08,0.55 -0.18,0.87l-0.83,-0.02zm0.25,1.03l0.01,-0.4l0.01,-0.1l0.43,0.03l0.06,0c-0.1,0.16 -0.19,0.33 -0.29,0.49l-0.22,-0.02zm-0.25,-1.67l0.03,-0.01l0.2,-0.11l0.02,0l-0.03,0.11l-0.12,0.41l-0.1,-0.37l0,-0.03zm-0.4,1.29l-0.11,-0.12c0.11,0.08 0.04,0 0.11,0.12zm-0.62,-0.31c0.14,-0.09 0.3,-0.06 0.51,-0.06l-0.06,0.21c-0.18,0.07 -0.2,0.04 -0.4,0.02l-0.05,-0.17zm0.31,0.97l0.2,0.46c-0.15,0.11 -0.31,0.21 -0.46,0.31c-0.13,-0.19 0.01,-0.71 0.26,-0.77zm-0.5,-1.62l-0.07,0l0.09,-0.19l-0.02,0.19zm0.73,0.07l-0.03,-0.02l0.11,-0.24l0.04,0l0.1,0.25l-0.22,0.01zm1.76,-3.36l-0.01,-0.08c0.07,-0.09 0.11,-0.14 0.23,-0.17l0.03,0.15c-0.05,0.03 -0.1,0.06 -0.15,0.1l-0.09,0l-0.01,0zm-0.01,0.63c-0.05,0.06 -0.13,0.1 -0.19,0.15l-0.06,-1.29l0.25,1.14zm-0.47,1.73c0.17,-0.09 0.2,0 0.22,0.22l-0.51,0l0.01,-0.08l0.28,-0.14zm-0.25,-0.71l0.12,-0.1l0.09,0.17l-0.04,0.09l-0.21,-0.02l0.04,-0.14zm-0.04,0.68l-0.27,0.25l-0.17,-0.02l-0.07,0c0.04,-0.08 0.08,-0.16 0.12,-0.23l0.39,0zm-0.96,-0.14c-0.11,-0.08 -0.03,-0.07 -0.05,-0.12l0.05,0.12zm0.8,-1.15l-0.86,-0.45c0.04,-0.59 0.11,-1.27 0.05,-1.88c0.67,0.24 1.26,1.32 0.81,2.33zm-0.61,0c0.21,0.11 0.2,0.21 0.5,0.3c0.05,0.19 -0.03,0.27 -0.15,0.47l-0.31,-0.01c-0.07,-0.34 0,-0.54 -0.04,-0.76zm0.06,1.66c-0.11,-0.07 -0.03,-0.06 -0.05,-0.12l0.05,0.12zm1.72,-2.48l0.01,-0.05l0.23,-0.17c0.04,0.27 0.02,0.71 -0.04,1.04c-0.13,-0.11 -0.16,-0.56 -0.2,-0.82zm0,0.82c0.06,-0.09 0.11,-0.18 0.16,-0.26l-0.09,0.25l-0.07,0.01zm1.49,-0.78l0.04,0c0.01,0.99 -0.6,1.17 -1.4,1.54l-0.13,0.01l0.5,-1.04l0.99,-0.51zm-1.51,-1.93c0.01,0.03 0.02,0.05 0.02,0.08l-0.06,0.05l-0.19,-0.26l0.23,0.13zm-0.23,0.43l0.01,-0.04a3.35,3.35 0 0 1 0.05,-0.01l0.19,0.26c-0.14,-0.07 -0.17,-0.09 -0.25,-0.21zm0.25,0.66l-0.34,0.33l-0.74,-1.07l-0.95,-0.83l0.21,-0.17c0.46,0.2 1.27,0.58 1.43,1.06c0.06,0.15 -0.13,0.28 0,0.41c0.15,0.15 0.29,0.04 0.39,0.27zm-2.14,1.62l0.07,0.03l0.04,0.74l-0.12,-0.03c-0.11,-0.08 -0.19,-0.46 -0.09,-0.63l0.1,-0.11zm-0.57,1.29l0.08,0l0.09,0.2l-0.13,0.05l-0.13,0c0.03,-0.08 0.06,-0.17 0.09,-0.25zm-0.23,4.13l-0.11,-0.38c0.16,-0.05 0.31,-0.09 0.47,-0.14l0.04,0a0.53,0.53 0 0 0 -0.01,0.03l-0.39,0.48l0,0.01zm-0.37,-1.04c0.05,-0.15 0.08,-0.17 0.17,-0.26l0.07,0.03l0.02,0.07l-0.16,0.15l-0.1,0.01zm0.12,0.26l-0.12,-0.13l0.26,-0.13l-0.07,0.26l-0.07,0zm-0.26,1.17c-0.04,-0.03 -0.07,-0.06 -0.11,-0.09l0.08,0l0.39,-0.3l0.04,0.31l-0.3,0.2l-0.1,-0.12zm0.02,2.96c-0.62,0.02 -0.98,-0.13 -1.48,-0.18l-0.58,-1.13l-0.11,-0.11c0.97,-0.12 1.57,-0.58 2.28,-0.9c0.26,0.24 0.83,1.46 0.32,2c-0.12,0.19 -0.25,0.2 -0.43,0.32zm-2.64,-1.28l0.23,-0.01c0.35,0.23 0.59,0.65 0.75,1.03l-1.02,-0.29c0.08,-0.26 0.11,-0.52 0.04,-0.73zm-0.73,-0.97l1.15,-0.33l1.81,0.18l0.03,0.09c-0.54,0.24 -1.15,0.44 -1.77,0.75c-0.66,0.06 -0.82,-0.19 -1.29,-0.36l0.07,-0.33zm-0.07,1.22l0.02,-0.23l0.44,-0.03c0.04,0.19 0.08,0.3 0.02,0.52l-0.48,-0.26zm-0.51,0.4l0.17,-0.09c0.21,-0.14 0.37,0.04 0.6,0.12l-0.09,0.08l-0.68,-0.11zm0.5,-0.4a15.96,15.96 0 0 1 -0.17,-0.08l-0.07,-0.18l0.25,0.02l-0.01,0.24zm-0.75,0l0.25,0.22c0,0.13 -0.01,0.12 -0.04,0.29l-0.21,-0.51zm-0.66,-0.97c0.24,-0.07 0.55,-0.06 0.91,-0.06l-0.33,0.25l-0.69,-0.06l0.11,-0.13zm-0.61,-12.93c0.47,-0.45 1.66,-0.32 1.95,-0.03l0.08,-0.01c-0.39,0.37 -1.01,0.41 -1.38,0.78c-0.3,-0.2 -0.54,-0.33 -0.65,-0.74zm2.6,0.74l0.2,0.22c-0.18,0.01 -0.37,0.02 -0.56,0.04c-0.42,0.04 -0.83,0.1 -1.12,0.25l-0.04,0a51.16,51.16 0 0 1 -0.07,-0.1a3.64,3.64 0 0 1 1.55,-0.41l0.04,0zm0.99,-1.29c0.33,0.33 0.82,0.52 0.99,1.03c-0.69,-0.32 -1.75,-0.32 -2.29,-0.83c0.47,0.1 0.88,0.06 1.3,-0.2zm0.22,1.8l0.95,0.13l0.07,0l-0.75,0.65c-0.12,-0.24 -0.15,-0.57 -0.26,-0.78l-0.01,0zm1.22,1.11l-0.2,-0.03l0.26,-0.05l-0.06,0.08zm-0.2,-0.62l0.24,-0.23l0.02,0.26l-0.17,-0.04l-0.09,0.01zm0.46,8.54l-0.11,0.01l-0.09,-0.09l0.07,-0.1l0.18,-0.07l-0.05,0.25zm-0.2,0.47c0.03,-0.03 0.06,-0.07 0.1,-0.11l0,-0.1l0.15,0.24l-0.25,0.02l0,-0.05zm-0.1,0.83l-0.16,-0.19l0.51,-0.07l-0.24,0.25l-0.11,0.01zm0.1,0.77l-0.51,-0.06l0.36,-0.2l0.15,0.26zm-0.36,-0.73l0.1,0.1l-0.37,0.09l-0.39,0.02l0.55,-0.25l0.11,0.04zm-1.42,-11.14c0.29,0.01 0.61,0.08 0.76,0.26c-0.21,-0.02 -0.57,0.01 -0.67,-0.15l-0.09,-0.11zm0.25,1.03c0.15,0.13 0.2,0.28 0.17,0.52c-0.22,-0.08 -0.16,-0.33 -0.17,-0.52zm0.25,1.63l0.01,-0.05c0.51,-0.11 0.62,0.07 0.39,0.23c-0.2,-0.03 -0.29,-0.1 -0.39,-0.18l-0.01,0zm0.66,6.63l0.11,0.03a1.49,1.49 0 0 0 -0.01,0.03l-0.25,0.2l0.11,-0.26l0.04,0zm-0.14,-6.29l0.19,-0.16l0.06,0.26l-0.26,-0.06l0.01,-0.04zm0.76,6.9l-0.62,0.16l-0.15,0c0,0 0.01,-0.01 0.01,-0.02c0.23,-0.05 0.38,-0.12 0.51,-0.24l0.22,0.04l0.03,0.05l0,0.01zm-0.44,-0.61l-0.07,-0.14l0.17,-0.12l0.08,0.04l-0.1,0.21l-0.08,0.01zm-1.6,1.78l0.3,-0.23l0.94,0.08l0.03,0.07l-0.63,0.36c-0.23,-0.03 -0.44,-0.14 -0.56,-0.28l-0.08,0zm-0.47,0.03l0.47,0.25l-0.76,-0.13c0.1,-0.04 0.19,-0.08 0.29,-0.12zm-0.04,0.52a7.12,7.12 0 0 0 0,0.06l-0.15,0.08l-0.1,0.02l0,-0.06c0.11,-0.15 0.09,-0.1 0.25,-0.1zm-1.2,-10.5a6.02,6.02 0 0 0 -0.07,-0.08c0.25,-0.13 0.65,-0.2 1.04,-0.23c0.33,-0.03 0.64,-0.03 0.87,-0.04l0.13,0.78c-0.34,-0.04 -0.65,-0.08 -1,-0.1a5.2,5.2 0 0 0 -0.88,0.03a41.05,41.05 0 0 0 -0.09,-0.36zm0.38,10.36l0.06,0.1l-0.06,0.24l-0.7,0.05c0.07,-0.23 0.18,-0.34 0.3,-0.52l0.4,0.13zm-0.87,-0.9c-0.32,-0.02 -0.76,-0.25 -0.85,-0.52l1.02,0.26l-0.17,0.26zm0.36,-0.01l-0.19,0.01l0,-0.06l0.21,-0.2c-0.01,0.08 -0.02,0.16 -0.02,0.25zm-0.7,-9.44l0.31,-0.1l0.2,0.25l-0.21,0.01l-0.3,-0.16zm-0.01,11.08c-0.01,0.06 -0.03,0.11 -0.05,0.17a0.88,0.88 0 0 0 -0.07,0.01a92.65,92.65 0 0 0 -0.13,-0.26l0.26,0.02l-0.01,0.06zm0.14,-1.11l0.6,0.12l0.03,0.08l-0.46,0.57l-0.56,-0.08l0.39,-0.69zm4.45,-8.09l0.11,-0.17l0.04,0l0.32,0.08l0.04,0.04l-0.36,0.14a41.52,41.52 0 0 0 -0.15,-0.09zm0.69,-0.84l-0.18,-0.11c0.18,0.07 0.07,0 0.18,0.11zm-0.06,1.18l-0.12,-0.1l0.25,-0.15l-0.13,0.25zm-0.12,1.81l0.39,0.1c0.11,0.04 0.11,0.05 0.12,0.16c-0.17,-0.07 -0.46,-0.11 -0.51,-0.26zm0.04,-0.7l0.05,-0.07l0.16,0.25l-0.25,-0.05l0.04,-0.13zm-5.16,8.49l0.03,0.07l-0.35,0.13l-0.16,0.01l0,-0.03l0.12,-0.19c0.16,-0.07 0.16,-0.02 0.36,0.01zm-0.74,-12.95c0.22,0.16 0.28,0.37 0.25,1.03c-0.15,-0.19 -0.24,-0.58 -0.25,-1.03zm0.15,-0.52l-0.02,0.19l-0.13,0.01l0.15,-0.2zm-0.15,0.26c0,0.06 -0.01,0.13 -0.02,0.19l-0.23,-0.05l0.19,-0.13l0.06,-0.01zm0,14.97l0.13,-1.31l0.89,-0.24l-0.94,1.5l-0.08,0.05zm0.07,-3.53l0.13,-0.08c0.13,0.14 0.02,0.36 -0.1,0.51c-0.1,-0.09 -0.11,-0.15 -0.09,-0.36l0.05,-0.07l0.01,0zm-0.83,-0.13l0.29,-0.47l0.47,0.28c-0.16,0.25 -0.32,0.5 -0.48,0.75c-0.15,-0.13 -0.24,-0.32 -0.28,-0.56zm0,2.02l0.47,-0.43l0.22,0.02l0.07,0.12c-0.02,0.13 -0.04,0.26 -0.05,0.38l-0.71,-0.09zm-0.76,-0.35l0.56,-0.33l0.42,0.06l0.03,0.06l-0.45,0.39c-0.22,-0.02 -0.37,-0.08 -0.49,-0.18l-0.08,0l0.01,0zm-0.08,-0.5l0.21,-0.09l0.08,0.02l0.04,0.04l-0.59,0.2l-0.17,-0.06l0.43,-0.11zm-0.69,-0.24l0.15,-0.36c0.28,-0.04 0.35,0.1 0.55,0.19l0.06,0.09l-0.31,0.21l-0.25,0.02l-0.2,-0.15zm-0.51,1.06l0.37,-0.65c0.25,0 0.28,0.02 0.38,0.15c0.04,0.07 0.01,0.03 -0.09,0.05l-0.03,0.22l0.39,0.06c-0.08,0.19 -0.09,0.17 -0.2,0.29c-0.38,0.02 -0.55,-0.06 -0.82,-0.12zm-0.43,-0.91l0.65,0.19l0.04,0.08l-0.42,0.5l-0.6,-0.2l0.33,-0.57zm-2.49,-0.7l0.01,-0.08l0.36,0.28l0.03,0.08c-0.75,0.57 0.4,2.46 1.7,1.24l0.57,0.23c-0.22,0.38 -0.59,0.53 -0.98,0.75c-0.94,0.08 -2.25,-1.45 -1.69,-2.5zm0.87,0.26l0.02,0.18c-0.07,-0.05 -0.14,-0.1 -0.21,-0.16l-0.05,-0.1l0.24,0.08zm1.29,1.1l-0.47,0.36c-0.91,0.1 -1.28,-0.54 -1.31,-1.32l0.18,-0.21l0.07,-0.01c0.46,0.36 0.87,0.92 1.5,1.1l0.03,0.08zm-0.89,-3.76c-0.08,-0.06 -0.09,-0.09 -0.13,-0.19l0.18,-0.66l0.2,-0.18l0.13,0.19l-0.38,0.84zm-0.13,0.22l0.4,-0.95l0.08,-0.04c0.19,0.32 0.46,0.47 0.54,0.91l-0.61,0.63a1.22,1.22 0 0 1 -0.41,-0.55zm0.76,0.79l0.51,-0.49l0.26,0.51a95.87,95.87 0 0 0 -0.77,-0.02zm1.28,-5.21c-0.24,0.51 -0.57,0.86 -0.76,1.36c-0.08,-0.45 0.42,-1.1 0.59,-1.5l0.08,-0.05l0.09,0.19zm0,-1.42c0.38,-0.12 0.63,-0.33 0.9,-0.57l0.12,0.34l-0.33,0.43l-0.69,-0.2zm1.27,0.03l-0.14,0.17l-0.11,-0.02l0,-0.03l0.23,-0.21l0.02,0.09zm-0.2,-1.12l0.04,0l0.16,0.34l-0.06,0.18c-0.23,-0.12 -0.22,-0.27 -0.14,-0.52zm-0.05,7.48l0.24,0.17l-0.24,-0.1a1.03,1.03 0 0 1 0,-0.07zm0,0.26l0.25,0.11a0.9,0.9 0 0 0 0,0.03l-0.54,0.38c-0.16,-0.07 -0.18,-0.21 -0.22,-0.36l0,-0.03l0.51,-0.13zm-0.76,-0.51l0.25,0.09l-0.13,0.08l-0.13,0.01l0.01,-0.18zm-0.01,-5.16c0.31,0.08 0.21,0.02 0.22,0.25c-0.14,-0.08 -0.15,-0.12 -0.22,-0.25zm0,4.61l0.02,-0.23c0.12,0.09 0.16,0.13 0.24,0.26a61.01,61.01 0 0 0 -0.26,-0.03zm0.51,-3.23c-0.09,0.13 -0.09,0.09 -0.25,0.16l0.11,-0.26l0.14,0.1zm0,-1.04l-0.16,0.17c-0.16,-0.09 -0.08,-0.05 -0.01,-0.22l0.09,-0.04l0.08,0.09zm-0.02,-0.43l-0.23,-0.17c0.18,0.07 0.13,0.02 0.23,0.17zm-0.49,4.73l0.26,0.2c-0.13,0 -0.2,-0.03 -0.26,-0.2zm0.77,-0.01l-0.11,0.01l-0.09,-0.16l-0.06,-0.08l0.14,-0.02c0.04,0.09 0.08,0.17 0.12,0.25zm-0.14,-4.78l-0.12,-0.11c0.11,0.08 0.04,0 0.11,0.11l0.01,0zm0.01,4.25l-0.13,-0.27l0.06,-0.22l0.03,0l0.17,0.51a37.21,37.21 0 0 0 -0.13,-0.02zm-0.67,3.01l0.03,0.03l-0.09,0.34a0.7,0.7 0 0 1 -0.42,-0.52l0.48,0.15zm-0.73,0.37l0.25,0.23c-0.16,-0.08 -0.17,-0.07 -0.25,-0.23zm0.44,-2.29l0.03,0.23l-0.22,-0.26l0.19,0.03zm-0.25,1.21l-0.19,-0.47c0.22,0.09 0.39,0.34 0.51,0.52l-0.32,-0.05zm0.2,-4.6l0.06,0l-0.19,0.26c-0.03,-0.06 0.01,-0.12 0.11,-0.2l0.02,-0.06zm-0.14,2.22l-0.05,0.1l-0.14,-0.11a116.8,116.8 0 0 1 -0.06,-0.12l0.2,-0.02l0.05,0.15zm-1.78,2.17c0.51,0.33 1.38,0.64 1.53,1.29a4.23,4.23 0 0 1 -1.53,-1.29zm1.32,-0.25l0.21,0.25l-0.51,-0.26l0.3,0.01zm1.87,0.77l-0.39,-0.39l0.68,-0.65l0.08,0.71l-0.37,0.33zm0.37,0.43l0.07,-0.17l0.09,-0.01l0.1,0.26l-0.26,-0.08zm0.35,-0.95l-0.09,-0.26l0.18,0.04l-0.09,0.22zm-0.35,-8.69l0.01,-0.02c0.08,-0.02 0.16,-0.04 0.25,-0.06l-0.18,0.25l-0.08,-0.17zm-2.56,5.34l-0.24,-0.52c0.3,0.06 0.25,0.28 0.24,0.52zm-0.63,0.25c-0.21,-0.15 -0.35,-0.45 -0.37,-0.77c0.45,0.1 0.42,0.28 0.51,0.69l-0.14,0.08zm-0.26,-1.34c-0.32,-0.31 0.15,-1.54 0.36,-1.82c0.11,-0.14 0.24,-0.14 0.43,-0.19l0.12,0.03c-0.31,0.54 -0.51,1.28 -0.59,2.03l-0.32,-0.05zm-0.47,4.18l0.15,0.26l-0.14,0.33l-0.08,0.08c0.12,0.02 0.14,-0.08 0.31,-0.22c0.33,0.54 0.84,1.05 1.39,1.34l-0.3,0.53l-0.92,-0.59c-0.11,-0.19 0.04,-0.42 -0.13,-0.54c-0.15,-0.1 -0.35,0.05 -0.51,0l-0.43,-0.39c0.13,-0.29 0.25,-0.56 0.5,-0.71l0.16,-0.09zm-0.88,-2.84a6.65,6.65 0 0 1 0.14,-0.77l0.04,0l0.13,0.77l0.07,0.4c0.2,0.55 0.4,1.11 0.61,1.67c-0.49,-0.27 -0.79,-0.88 -0.74,-1.7c-0.12,0.27 -0.02,0.68 0.01,0.92c-0.29,-0.26 -0.33,-0.76 -0.27,-1.29l0.01,0zm-0.45,0.26a0.94,0.94 0 0 1 -0.08,-0.31a2.03,2.03 0 0 1 0,-0.43l0.05,-0.1l0.19,-0.19l-0.11,0.72l-0.05,0.31zm17.73,2.58l-0.51,-0.19l0.49,-0.07l0.02,0.26zm-13.47,4.2l0.13,-0.07l-0.16,0.26l0.02,-0.19l0.01,0zm-3.84,-8.84l-0.22,-0.02c-0.27,-0.09 -0.52,-0.41 -0.55,-0.76c0.42,0.04 0.56,0.24 0.76,0.48c0,0.1 0.01,0.2 0.01,0.3zm-0.03,-0.02c0.03,-0.56 -0.4,-0.91 -0.95,-0.89c0.09,-0.79 0.77,-1.19 1.38,-1.45l0.12,-0.01c-0.1,0.98 -0.03,1.83 -0.39,2.68c-0.27,0.63 -1.24,0.61 -1.18,1.58l0,0.08c0.14,1.28 1.54,1.54 1.73,2.67c-2.07,1.06 0.45,5.48 2.09,2.88c0.29,0.05 0.55,0.18 0.92,0.05c0.17,-0.09 0.2,-0.17 0.27,-0.37l0.58,0.31l0.03,0.07c-0.53,0.42 -0.91,0.99 -1.49,1.38l0.06,-0.16l-0.15,-0.03l-0.09,0.05l-0.07,0.35c0.33,0.33 1.33,-0.88 1.62,-1.12c-0.17,0.58 -0.58,0.87 -0.8,1.4l0.07,0.08c0.43,-0.31 0.95,-1.18 1.03,-1.85l0.65,0.11c-0.81,1.09 -2.88,3.49 -3.97,4.13c0.16,-0.52 0.43,-0.92 0.56,-1.35l-0.08,0.01a14.4,14.4 0 0 0 -0.07,-0.07c-0.26,0.52 -0.7,0.89 -0.78,1.59a0.69,0.69 0 0 0 0.18,0.18c1.29,-0.22 3.46,-3.47 4.49,-4.36c-0.28,2.81 -1.78,3.25 -3.09,4.95c1.19,-0.59 1.91,-2.11 2.92,-2.94c-0.11,1.17 -0.39,3.79 -1.09,4.26l0.12,-0.01c0.78,-0.49 0.83,-2.5 1.09,-3.53l0.12,-1.09l1.12,-1.58l0.08,-0.04c0.13,0.39 0.7,0.82 1.32,0.71l0.44,-0.19l1.11,0.42c0.15,1.6 0.09,2.49 -0.92,3.71c1.03,-0.53 1.41,-2.57 1.07,-3.65c2.4,0.28 2.31,-0.53 1.85,-2.28l0.42,0c-0.07,-0.11 -0.28,-0.03 -0.45,-0.12c-0.07,-0.04 -0.05,-0.03 -0.1,-0.1c0.57,-0.65 1.95,-0.01 1.66,1.06c0.4,-0.89 -0.48,-1.68 -1.32,-1.36c0.36,-0.42 0.79,-0.78 1.02,-1.34l0.08,-0.04l1.98,2.08l0.12,-0.01l0.09,-0.13c-0.63,-0.74 -1.26,-1.49 -1.89,-2.24l0.21,-0.09a0.41,0.41 0 0 1 0.35,-0.12a22.55,22.55 0 0 1 -0.1,-0.05c1.01,0.1 2.3,0.95 3.35,0.67c0.1,-0.17 0.11,-0.26 0.05,-0.42c1.12,0.03 3.14,-0.35 3.79,-0.9c-1.73,0.37 -3.68,0.49 -5.27,0.28l-1.41,-0.17l-0.08,0.01l0.38,-0.68c1.16,-0.02 4.21,-0.05 4.82,-0.78l-0.14,-0.18l-0.53,-0.08a0.39,0.39 0 0 0 -0.06,0.2l0.42,0.04c-0.91,0.23 -3.45,0.72 -4.28,0.44c-0.08,-0.11 -0.02,-0.48 -0.02,-0.74a0.97,0.97 0 0 0 0,-0.14c1.19,-0.36 2.08,-1.16 2.44,-2.37c0.21,-0.7 0.07,-1.61 0.52,-2.04c0.28,0.03 0.34,0.15 0.55,0.23c-0.11,-0.15 -0.27,-0.24 -0.47,-0.31l-0.37,0.26c-0.34,0.13 -0.7,-0.22 -1.28,0.05c-0.47,-0.4 -0.73,-1.03 -1.37,-1.28l-0.06,-0.11l0.77,-0.75c-0.26,0.22 -0.51,0.46 -0.77,0.71l-0.52,-0.23l-0.03,-0.07c0.59,-0.42 1.11,-0.57 1.78,-0.44c0.03,0.06 0.07,0.12 0.1,0.19c-0.03,0.05 -0.06,0.06 -0.09,0.08l-0.22,-0.06c0.1,0.06 0.2,0.07 0.3,0.09l0.08,-0.08l0.02,-0.12c-0.15,-0.13 -0.2,-0.22 -0.48,-0.23l0.13,-0.2c-0.32,0.22 -0.99,0.28 -1.32,0.48l0.76,-0.6l0.09,-0.12l-1.4,0.84c-0.29,-0.02 -0.61,-0.16 -0.77,-0.33a39.46,39.46 0 0 0 -0.08,0l1.66,-1.12l-0.03,-0.11c-0.63,0.37 -1.26,0.73 -1.88,1.1l-0.61,-0.15l0.06,-0.54l4.32,-3.39l0.07,0l-0.06,-0.15c-0.16,-0.08 -0.81,0.45 -1.06,0.61c-0.96,0.62 -1.8,1.38 -2.74,1.93c0.38,-0.49 1.09,-0.98 1.21,-1.7l-0.19,-0.02l-0.29,0.25l0.32,-0.14c-0.21,0.63 -1.15,1.76 -1.68,2.12l-0.07,-0.15c0.35,-0.58 0.69,-1.36 0.53,-2.11l-0.29,-0.17l-0.31,0.02c0.2,0.08 0.33,0.1 0.48,0.2c0.09,0.72 -0.26,1.21 -0.45,1.8l-0.09,0.04c-0.12,-0.24 -0.12,-0.35 -0.38,-0.39l-0.02,-0.16l0.18,-0.24l0.12,-0.09c0.04,0.08 0.05,0.06 0.06,0.19a0.39,0.39 0 0 0 0.06,-0.19l-0.15,-0.07l-0.39,0.41c-0.32,-0.21 -0.68,-0.44 -1.14,-0.53c0.26,-0.53 1.05,-1.4 0.64,-2.08c-0.49,-0.83 -2.19,0.13 -2.81,0.78a1.23,1.23 0 0 0 -0.18,0.25a9.02,9.02 0 0 1 0.18,-0.15c0.61,-0.45 2.24,-1.54 2.6,-0.67c0.37,0.49 -0.34,1.42 -0.54,1.8c-0.66,-0.06 -1.35,-0.13 -2.06,-0.11a7.42,7.42 0 0 0 -2.2,0.35c-0.36,0.12 -1.89,1.04 -1.95,1.03l-0.7,-0.68l-1.47,-0.73l0,0.07l-0.09,0.09l1.88,1.58l-0.29,0.18c-0.77,-0.59 -1.3,-0.94 -2.45,-1.24l-0.2,0.02c0.67,0.46 1.35,0.88 2.03,1.3l0.13,0.19c-0.48,0.2 -0.69,0.62 -1.09,0.88c-0.64,-0.3 -1.23,-0.58 -2,-0.81l-0.05,0.16l1.44,0.93l0.08,-0.01l-0.25,0.17c-0.11,0.39 -0.34,0.84 -0.53,1.39c-0.72,0.58 -1.65,0.55 -1.8,1.74c-0.23,0.06 -0.39,0.08 -0.6,0.24l-0.01,0.15c0.13,0.19 1.3,0.68 1.58,0.73l0.17,-0.17l0,0.01zm8.54,-8.26l0.1,0.02l-0.14,-0.02c-0.02,0 -0.05,0 -0.07,0c0.11,-0.21 0.44,-0.26 0.76,-0.23l-0.02,0.15l-0.63,0.03l0,0.05zm0.44,0.28l0.3,-0.1c0.13,-0.22 0.21,-0.45 0.14,-0.66c-0.31,-0.06 -0.49,0.02 -0.77,0.14a49.67,49.67 0 0 0 -0.16,0.26l-0.06,0.1a0.57,0.57 0 0 0 0.06,0.06c0.1,0.08 0.21,0.11 0.43,0.09c0.06,0.1 -0.01,0.05 -0.12,0.08l0.18,0.03zm7.41,2.32l-0.33,0.06l0.2,-0.01l0.23,0.09l-0.34,0.63c0.17,-0.21 0.35,-0.35 0.42,-0.67l-0.18,-0.1zm-1.85,10.06c-0.08,-0.14 -0.17,-0.23 -0.26,-0.25c0.08,0.07 0.17,0.15 0.26,0.25zm-1.02,3.1l-0.26,0.15l0.2,-0.02l0.06,-0.13zm1.02,-3.1c0.25,0.3 0.45,0.86 0.39,1.29c0.3,-0.63 -0.04,-1.03 -0.39,-1.29z" fill="white" id="svg_1"/>
 </g>

</svg>