<?xml version="1.0"?>
<svg width="24" height="24" xmlns="http://www.w3.org/2000/svg" xmlns:svg="http://www.w3.org/2000/svg">
 <title>Kaggle icon</title>

 <g class="layer">
  <title>Layer 1</title>
  <path d="m18.82,23.86c-0.02,0.09 -0.11,0.14 -0.28,0.14l-3.13,0c-0.19,0 -0.36,-0.08 -0.5,-0.25l-5.18,-6.59l-1.44,1.38l0,5.11c0,0.23 -0.12,0.35 -0.35,0.35l-2.44,0c-0.23,0 -0.35,-0.12 -0.35,-0.35l0,-23.3c0,-0.23 0.12,-0.35 0.35,-0.35l2.44,0c0.23,0 0.35,0.12 0.35,0.35l0,14.35l6.2,-6.28c0.16,-0.16 0.33,-0.24 0.49,-0.24l3.24,0c0.15,0 0.24,0.06 0.29,0.18c0.04,0.15 0.03,0.25 -0.04,0.31l-6.55,6.35l6.83,8.5c0.1,0.11 0.12,0.21 0.07,0.36" fill="white" id="svg_1"/>
 </g>
</svg>